<?xml version="1.0" standalone="no"?>
<!DOCTYPE svg PUBLIC "-//W3C//DTD SVG 20010904//EN"
 "http://www.w3.org/TR/2001/REC-SVG-20010904/DTD/svg10.dtd">
<svg version="1.0" xmlns="http://www.w3.org/2000/svg"
 width="3130.000000pt" height="3130.000000pt" viewBox="0 0 3130.000000 3130.000000"
 preserveAspectRatio="xMidYMid meet">
<metadata>
Created by potrace 1.11, written by Peter Selinger 2001-2013
</metadata>
<g transform="translate(0.000000,3130.000000) scale(0.100000,-0.100000)"
fill="#000000" stroke="none">
<path d="M15580 25223 c-298 -456 -775 -1091 -1045 -1389 -5 -6 -31 -36 -57
-66 -55 -63 -63 -72 -178 -198 -200 -220 -495 -516 -721 -725 -91 -84 -213
-192 -303 -268 -27 -23 -54 -47 -60 -52 -63 -59 -375 -305 -566 -447 -150
-111 -185 -137 -369 -262 -277 -190 -614 -393 -976 -591 -84 -46 -480 -244
-550 -275 -27 -13 -84 -38 -125 -57 -41 -19 -88 -40 -105 -47 -16 -8 -61 -27
-100 -44 -232 -102 -601 -241 -935 -352 -264 -88 -803 -238 -1020 -285 -8 -2
-37 -9 -65 -15 -27 -6 -57 -13 -65 -15 -58 -13 -523 -105 -555 -110 -22 -3
-62 -9 -90 -15 -46 -8 -90 -16 -155 -25 -14 -2 -38 -6 -55 -9 -39 -6 -170 -25
-215 -30 -110 -14 -137 -17 -160 -21 -14 -3 -52 -7 -85 -10 -33 -3 -71 -8 -85
-10 -14 -3 -61 -7 -105 -11 -44 -3 -88 -8 -97 -9 -9 -2 -57 -7 -105 -10 -48
-4 -104 -8 -123 -10 -19 -3 -82 -7 -140 -11 -58 -3 -123 -7 -145 -9 -245 -20
-1215 -27 -1520 -12 -315 16 -529 30 -660 42 -27 2 -84 7 -125 10 -41 3 -88 8
-105 10 -16 2 -59 6 -95 10 -36 3 -81 8 -100 10 -80 10 -118 14 -170 20 -80 9
-125 14 -167 20 -33 4 -390 56 -493 71 -79 12 -283 47 -405 69 -72 13 -146 27
-165 30 -19 3 -42 8 -50 10 -8 2 -28 7 -45 10 -34 6 -69 12 -105 20 -39 8 -71
15 -125 26 -27 5 -120 25 -205 45 -139 31 -190 43 -205 45 -5 1 -379 97 -405
104 -8 2 -58 15 -110 29 -52 14 -158 44 -235 66 -77 23 -153 45 -170 50 -54
15 -338 108 -453 148 l-113 40 90 -171 c49 -95 121 -235 161 -312 116 -224
190 -367 296 -570 193 -373 213 -412 279 -540 115 -223 225 -436 285 -550 119
-229 190 -366 280 -540 51 -99 116 -225 145 -280 29 -55 87 -167 130 -250 43
-82 108 -208 145 -280 37 -71 102 -197 145 -280 86 -166 176 -341 283 -545 38
-74 101 -196 140 -270 38 -74 99 -191 134 -260 36 -69 102 -197 148 -285 46
-88 111 -214 145 -280 34 -66 93 -178 129 -250 37 -71 72 -135 78 -142 6 -7 7
-13 3 -13 -4 0 -3 -6 3 -12 10 -13 52 -92 193 -366 41 -79 97 -187 124 -240
97 -185 248 -478 323 -622 41 -80 101 -194 132 -255 32 -60 99 -191 150 -290
51 -99 109 -211 130 -250 20 -38 81 -155 135 -260 95 -184 174 -337 298 -575
74 -144 184 -356 283 -547 137 -265 216 -416 269 -518 29 -55 101 -194 160
-309 59 -116 115 -222 124 -236 l16 -26 2133 0 c1172 0 2132 1 2132 2 0 1 -22
44 -49 96 -70 136 -187 361 -276 533 -43 83 -99 191 -125 240 -26 50 -94 180
-150 290 -56 110 -126 245 -155 300 -94 179 -180 346 -290 560 -59 116 -120
233 -135 260 -15 28 -74 140 -130 250 -56 110 -124 241 -150 290 -26 50 -87
167 -135 260 -48 94 -116 224 -150 290 -34 66 -97 188 -140 270 -138 267 -216
418 -275 530 -32 61 -95 182 -140 270 -164 317 -244 472 -300 580 -32 61 -95
182 -140 270 -46 88 -103 198 -127 244 -24 46 -38 81 -31 78 266 -110 446
-174 663 -236 119 -34 168 -46 295 -76 8 -2 53 -12 100 -23 47 -11 101 -23
121 -26 20 -3 42 -8 50 -10 8 -3 32 -8 53 -11 21 -3 48 -7 60 -10 12 -2 39 -7
61 -10 22 -3 69 -10 105 -16 71 -12 101 -16 170 -24 25 -3 59 -7 75 -9 17 -2
66 -7 109 -11 43 -4 86 -8 95 -10 103 -19 807 -27 1041 -11 128 8 138 9 250
20 36 4 88 9 115 12 28 2 68 7 90 10 22 3 51 7 65 9 43 6 114 16 145 22 17 2
41 6 55 8 175 25 554 109 815 181 240 67 706 229 862 300 28 13 55 24 58 24 3
0 27 10 53 21 26 12 97 44 157 71 598 270 1275 685 1830 1122 105 82 360 291
385 315 9 9 30 27 46 40 66 55 225 198 362 326 115 107 393 386 532 534 l125
133 115 -139 c63 -76 117 -140 120 -143 3 -3 59 -66 125 -140 132 -149 510
-531 649 -655 49 -44 94 -84 100 -90 6 -5 52 -44 101 -85 50 -41 92 -78 95
-81 3 -3 52 -43 110 -88 58 -45 112 -88 120 -94 59 -47 325 -237 420 -299 175
-114 290 -188 296 -188 3 0 29 -15 58 -32 28 -18 61 -38 72 -45 10 -7 44 -25
74 -42 30 -16 84 -45 120 -65 244 -134 641 -313 925 -418 273 -100 728 -239
865 -263 18 -3 36 -7 39 -9 7 -5 325 -72 406 -86 33 -5 71 -12 85 -15 13 -3
42 -7 65 -10 22 -3 65 -10 95 -15 30 -5 78 -12 105 -15 28 -3 61 -7 75 -10 14
-2 52 -7 85 -10 33 -4 78 -8 100 -11 22 -3 72 -7 110 -10 39 -2 86 -7 105 -9
224 -27 967 -27 1295 0 156 13 201 17 229 20 51 6 128 15 176 20 25 3 68 8 95
11 28 3 57 7 65 9 8 2 35 7 60 10 25 3 70 10 100 15 30 5 71 12 90 14 81 10
457 89 605 127 88 22 168 42 177 44 36 8 341 104 381 120 14 6 -3 -34 -58
-141 -43 -82 -113 -219 -157 -304 -45 -85 -104 -200 -133 -255 -29 -55 -94
-181 -145 -280 -51 -99 -122 -236 -158 -305 -120 -232 -184 -354 -279 -540
-53 -102 -117 -225 -143 -275 -26 -49 -85 -162 -130 -250 -45 -88 -113 -218
-150 -290 -37 -71 -99 -190 -136 -263 -38 -73 -92 -176 -119 -230 -28 -53 -97
-187 -154 -297 -57 -110 -133 -256 -169 -325 -35 -69 -98 -190 -139 -270 -69
-133 -113 -217 -273 -525 -32 -60 -101 -195 -155 -300 -54 -104 -114 -221
-135 -260 -67 -127 -250 -482 -250 -487 0 -6 4267 -4 4273 2 3 3 37 68 77 145
40 77 103 199 140 270 37 72 100 193 140 270 40 77 103 199 140 270 94 181
194 373 285 550 43 83 108 209 145 280 37 72 105 202 150 290 45 88 106 205
135 260 29 55 89 170 132 255 120 233 229 442 293 565 32 61 95 182 140 270
45 88 115 223 155 300 40 77 107 208 150 290 43 83 103 200 135 260 57 110
150 288 295 570 43 83 101 195 130 250 29 55 90 172 135 260 45 88 112 216
148 285 139 268 203 391 282 545 90 174 187 362 285 550 99 190 206 397 294
568 45 87 109 211 143 275 33 64 97 187 141 272 44 85 108 209 142 275 74 143
168 323 277 535 177 341 233 449 283 545 29 55 94 181 145 280 51 99 116 225
145 280 29 55 96 186 150 290 54 105 101 195 105 200 14 20 20 46 9 40 -40
-26 -633 -226 -869 -294 -80 -24 -156 -46 -170 -51 -46 -15 -475 -130 -543
-145 -10 -2 -113 -26 -230 -54 -117 -27 -223 -52 -237 -55 -14 -2 -81 -16
-150 -31 -129 -26 -154 -31 -205 -40 -16 -3 -50 -10 -75 -15 -64 -13 -257 -48
-305 -55 -22 -3 -65 -10 -95 -15 -30 -5 -84 -14 -120 -20 -36 -5 -78 -12 -95
-15 -16 -3 -50 -7 -75 -10 -25 -3 -56 -8 -70 -10 -14 -3 -47 -7 -75 -11 -27
-3 -58 -8 -67 -9 -9 -2 -48 -7 -85 -10 -37 -4 -71 -9 -74 -11 -3 -2 -37 -6
-75 -9 -38 -3 -80 -8 -94 -10 -14 -2 -56 -7 -95 -10 -38 -3 -86 -8 -105 -10
-32 -4 -89 -9 -210 -20 -25 -2 -76 -6 -115 -9 -38 -3 -106 -8 -150 -11 -289
-22 -556 -29 -1005 -29 -414 0 -598 4 -825 19 -149 10 -326 23 -390 29 -146
14 -219 21 -305 31 -19 3 -96 12 -170 20 -74 9 -146 18 -160 21 -14 2 -41 7
-60 9 -94 13 -124 18 -240 37 -69 11 -134 22 -146 23 -11 2 -45 8 -75 14 -30
6 -65 12 -79 15 -77 12 -317 63 -465 98 -93 22 -177 41 -185 43 -102 22 -444
117 -636 176 -384 117 -882 300 -1169 429 -22 10 -76 33 -120 53 -293 128
-643 306 -949 481 -209 120 -195 111 -321 189 -60 38 -119 73 -130 80 -66 41
-467 308 -475 318 -3 3 -36 27 -73 53 -63 43 -345 254 -357 266 -8 8 -92 75
-144 114 -25 20 -59 47 -74 60 -15 13 -48 41 -73 62 -187 158 -207 176 -404
355 -291 266 -655 637 -911 929 -21 24 -47 54 -58 65 -25 27 -304 361 -341
409 -16 21 -57 73 -91 115 -54 67 -280 366 -326 432 -10 13 -34 47 -53 74 -94
132 -159 225 -278 405 -71 107 -133 198 -136 202 -3 3 -49 -59 -101 -139z"/>
<path d="M15445 14765 c-204 -205 -301 -295 -435 -406 -36 -30 -67 -56 -70
-59 -7 -8 -171 -135 -240 -186 -112 -83 -431 -294 -445 -294 -2 0 -34 -19 -71
-42 -78 -47 -366 -192 -464 -233 -36 -15 -74 -31 -85 -36 -159 -67 -380 -142
-545 -184 -8 -2 -30 -8 -47 -14 -18 -5 -33 -8 -33 -6 0 3 -10 1 -23 -4 -22 -9
-191 -45 -252 -55 -16 -2 -50 -8 -75 -12 -25 -4 -52 -8 -60 -9 -8 -1 -40 -6
-70 -10 -243 -33 -706 -38 -925 -9 -392 51 -678 119 -927 219 -60 23 -108 41
-108 38 0 -3 24 -51 54 -107 29 -55 102 -195 161 -311 59 -115 124 -241 145
-280 21 -38 77 -146 125 -240 83 -162 132 -257 285 -550 37 -71 105 -202 150
-290 46 -88 111 -214 145 -280 35 -66 97 -187 140 -270 43 -82 103 -199 135
-260 32 -60 93 -180 137 -265 228 -441 255 -490 271 -491 9 0 1513 -1 3342 -2
3313 -2 3325 -2 3343 18 10 11 55 92 101 180 143 279 298 578 336 650 20 39
77 147 125 240 48 94 116 224 150 290 34 66 96 185 137 265 42 80 105 201 141
270 35 69 97 188 137 265 40 77 103 199 140 270 37 72 102 198 145 280 224
434 260 504 287 554 16 29 27 55 25 57 -2 2 -43 -9 -93 -25 -130 -43 -402
-109 -514 -126 -14 -3 -34 -6 -45 -9 -17 -3 -74 -12 -205 -31 -24 -4 -120 -14
-190 -21 -240 -23 -763 -23 -900 0 -14 3 -52 7 -85 10 -33 4 -71 8 -85 10 -14
2 -47 7 -75 11 -27 4 -117 20 -200 36 -734 141 -1379 450 -1975 948 -172 144
-518 492 -621 626 -13 17 -37 44 -54 61 l-30 31 -210 -212z"/>
<path d="M6268 8613 c19 -40 40 -81 132 -258 31 -60 94 -182 140 -270 45 -88
106 -205 135 -260 29 -55 94 -181 145 -280 51 -99 119 -229 150 -290 69 -132
166 -319 285 -550 48 -93 111 -215 140 -270 49 -92 220 -424 253 -487 l13 -28
7988 0 7987 0 59 113 c32 61 79 153 105 202 46 87 117 224 283 545 44 85 103
200 132 255 29 55 86 165 127 245 42 80 107 206 145 280 39 74 108 207 153
295 46 88 104 201 130 250 26 50 94 180 150 290 57 110 109 209 117 220 7 11
13 23 13 27 0 5 -4230 8 -9400 8 l-9399 0 17 -37z"/>
</g>
</svg>
